<?xml version="1.0" encoding="UTF-8"?><svg id="Layer_1" xmlns="http://www.w3.org/2000/svg" viewBox="0 0 50.55 50.29"><defs><style>.cls-1,.cls-2{fill:#122818;}.cls-2{font-family:GystVariableRoman-Bold, 'Gyst Variable';font-size:6.34px;font-variation-settings:'wght' 700;font-weight:700;}</style></defs><text class="cls-2" transform="translate(0 48.93) scale(.93 1)"><tspan x="0" y="0">RIVA REALESTATE</tspan></text><path class="cls-1" d="M.71,32.36l-.71-.71.71-.71.6.6c.06.06.06.15,0,.22l-.6.6ZM3.23,37.02l-.26.8-.09.05c-.53-.17-1.89-.51-2.36-.69-.23-.11-.39-.23-.49-.39l.2-1.13c.17-.23.46-.37.96-.71l2.06-1.45v-.36l.42-.79.11.03v4.62h1.16l.29.15v1.04l-.29.15h-.71c-.59,0-.97-.39-.97-.97v-.36ZM.4,35.71c.99.43,1.82.59,2.83.85v-2.74l-.05.08c-.12.25-.37.5-.6.62l-2.18,1.19ZM2.15,32.36l-.71-.71.71-.71.6.6c.06.06.06.15,0,.22l-.6.6Z"/><path class="cls-1" d="M4.89,38.35l-.31-.15v-.57l.31-.62h2.7l-1.08-2.38.53-1.08h.11c.31.87.63,1.75.63,2.67,0,.39-.06.77-.19,1.17l-.34.96h-2.36Z"/><path class="cls-1" d="M4.1,41.06l-.73-.71.73-.71.6.6c.06.06.06.15,0,.22l-.6.6Z"/><path class="cls-1" d="M5.54,41.06l-.71-.71.71-.71.6.6c.06.06.06.15,0,.22l-.6.6Z"/><path class="cls-1" d="M9.45,40.76l-2.71-.29v-.12c2.09-.31,3.49-1.81,3.89-3.18l-1.44-2.35.76-1.03h.11c.42,1.22.68,2.29.68,3.31,0,1.48-.54,2.78-1.3,3.68Z"/><path class="cls-1" d="M12.15,38.35v-6.55l.43-1.28h.11v6.49h1.16c.19,0,.31.12.31.31v.73c0,.19-.12.31-.31.31h-1.7Z"/><path class="cls-1" d="M13.53,38.2v-1.04l.31-.15h2.55c-.45-.57-.8-1.42-.48-2.32.19-.53.79-1.62,1.99-1.62,1.67,0,2.04,2.07,1.44,3.29-.12.23-.28.45-.48.65h1.25l.29.15v1.04l-.31.15h-1.78l-.85-.46c-.76.31-1.64.46-2.43.46h-1.24l-.28-.15ZM19.27,36.28c0-.65-.2-2.01-1.58-2.01-.62,0-1.31.29-1.65.53.03.96.96,1.68,1.7,2.12.59-.09,1.05-.29,1.53-.63ZM17.1,32.36l-.71-.71.71-.71.6.6c.06.06.06.15,0,.22l-.6.6ZM18.54,32.36l-.71-.71.71-.71.6.6c.06.06.06.15,0,.22l-.6.6Z"/><path class="cls-1" d="M26.35,35.12c-.19.94-1.04,1.56-1.56,1.89h2.19l.29.15v1.13l-.29.06h-1.65l-1-1.01c-.46.51-1.07,1.01-1.92,1.01h-2.21l-.4-.09v-1.1l.31-.15h3.86l-2.41-2.38.05-.22.56-.93c.53-.22,1.28-.49,2.09-.49,1.62,0,2.3,1.1,2.1,2.13ZM24.26,37.01c.4-.26,1.41-.94,1.5-1.7.09-.87-1.04-1.13-1.89-1.13-.59,0-1.64.14-2.15.32l2.5,2.5h.03Z"/><path class="cls-1" d="M26.97,38.35l-.31-.15v-.57l.31-.62h2.35v-4.56c-.46-.43-.48-1.02-.02-1.53l.45-.51h.11v.79l.87.56-.87,1.07v2.7l-.53,2.83h-2.36Z"/><path class="cls-1" d="M31.82,38.82h-.11v-7.02l.43-1.28h.11v6.26l-.43,2.04Z"/><path class="cls-1" d="M36.77,38.35v-6.55l.43-1.28h.11v6.49h1.16c.19,0,.31.12.31.31v.73c0,.19-.12.31-.31.31h-1.7Z"/><path class="cls-1" d="M38.15,38.2v-1.04l.31-.15h2.55c-.45-.57-.8-1.42-.48-2.32.19-.53.79-1.62,1.99-1.62,1.67,0,2.04,2.07,1.44,3.29-.12.23-.28.45-.48.65h1.25l.29.15v1.04l-.31.15h-1.78l-.85-.46c-.76.31-1.64.46-2.43.46h-1.24l-.28-.15ZM43.88,36.28c0-.65-.2-2.01-1.58-2.01-.62,0-1.31.29-1.65.53.03.96.96,1.68,1.7,2.12.59-.09,1.05-.29,1.53-.63ZM41.75,32.37l-.71-.71.71-.71.6.6c.06.06.06.15,0,.22l-.6.6ZM42.49,31.2l-.71-.71.71-.71.6.6c.06.06.06.15,0,.22l-.6.6ZM43.19,32.37l-.71-.71.71-.71.6.6c.06.06.06.15,0,.22l-.6.6Z"/><path class="cls-1" d="M44.69,38.35l-.31-.15v-.57l.31-.62h2.7l-1.08-2.38.53-1.08h.11c.31.87.63,1.75.63,2.67,0,.39-.06.77-.19,1.17l-.34.96h-2.36Z"/><path class="cls-1" d="M43.55,41.06l-.73-.71.73-.71.6.6c.06.06.06.15,0,.22l-.6.6Z"/><path class="cls-1" d="M44.99,41.06l-.71-.71.71-.71.6.6c.06.06.06.15,0,.22l-.6.6Z"/><path class="cls-1" d="M49.25,40.76l-2.71-.29v-.12c2.09-.31,3.49-1.81,3.89-3.18l-1.44-2.35.76-1.03h.11c.42,1.22.68,2.29.68,3.31,0,1.48-.54,2.78-1.3,3.68Z"/><path class="cls-1" d="M24.99,13.23c1.17-.68,1.75-1.11,1.75-1.31,0-.4-.15-.89-.44-1.45-.31-.63-.61-.95-.9-.95s-.67.25-1.14.76c-.47.51-.7.91-.7,1.2,0,.56.45,1.14,1.34,1.75.03.02.06.02.09,0Z"/><path class="cls-1" d="M17.51,19.76c-.08-.05-.18-.08-.3-.08h-.57v.63h.57c.12,0,.22-.03.3-.08.08-.04.12-.13.12-.24s-.04-.19-.12-.23ZM17.51,19.76c-.08-.05-.18-.08-.3-.08h-.57v.63h.57c.12,0,.22-.03.3-.08.08-.04.12-.13.12-.24s-.04-.19-.12-.23ZM17.51,19.76c-.08-.05-.18-.08-.3-.08h-.57v.63h.57c.12,0,.22-.03.3-.08.08-.04.12-.13.12-.24s-.04-.19-.12-.23ZM17.51,19.76c-.08-.05-.18-.08-.3-.08h-.57v.63h.57c.12,0,.22-.03.3-.08.08-.04.12-.13.12-.24s-.04-.19-.12-.23ZM38.14,0H15.56s-.08.04-.08.09c.04.36.09.73.13,1.12.59,5.19.92,7.87.96,8.05.57,3.61,2.07,5.41,4.54,5.41h.01c.7,0,1.29-.11,1.78-.32.04-.03.05-.07.04-.11-.24-.58-.36-1.23-.36-1.93,0-1.16.46-2.33,1.37-3.54.85-1.1,1.58-1.66,2.2-1.66.36,0,.73.4,1.08,1.23.31.71.46,1.27.46,1.71,0,1.41-.36,2.67-1.12,3.78-.03.04-.01.11.04.13.57.13,1.21.2,1.94.2.53,0,1.17-.19,1.89-.57.66-.34,1-.59,1-.75,0-.35-.22-.84-.65-1.45-.34-.48-.54-.77-.62-.85-.01-.03-.03-.04-.03-.07.01-.16.07-.54.19-1.09.12-.62.2-.94.27-.94.18,0,.43.34.79,1,.44.82.66,1.7.66,2.6,0,1.21-.26,2.2-.75,2.91-.74,1.01-1.85,1.52-3.3,1.52-1.58-.04-2.76-.28-3.57-.77-.04-.01-.07-.01-.09.01-1.23.84-2.48,1.25-3.76,1.25h-.03c-3.07,0-4.85-2.45-5.35-7.37-.35-3.66-.73-6.83-1.12-9.52h0c0-.05-.03-.09-.07-.09h-.78c-.05,0-.09.05-.09.09v24.92s.04.07.09.07h9.4c.92-.38,1.75-.73,2.48-1.06,2.67-1.21,5.21-2.59,7.64-4.11,2.32-1.41,3.46-2.33,3.46-2.69,0-.57-.46-1.41-1.52-3.15,0,0-1.05-1.72-1.36-3.15,0-.07-.01-.11-.01-.12,0-.16.07-.58.19-1.25.12-.73.24-1.1.34-1.1.19,0,.36.23.78.82,1.31,1.82,1.39,2.02,1.32,2.09-.05.05-.23.04-.81-.32.07.24.4.98,1.05,2.21.61,1.09.9,1.99.9,2.71,0,1.56-.53,2.96-1.59,4.2-.53.62-2.21,1.76-5.04,3.43-.86.51-1.66.97-2.4,1.36-.08.04-.04.15.04.15h10.05s.07-.03.07-.07V.09s-.03-.09-.07-.09ZM24.67,1.8c.04-.07.11-.08.16-.05l1.59.94c.05.03.08.09.04.15l-.74,1.33c-.03.07-.09.08-.15.05l-1.63-.96s-.04-.07-.03-.11l.75-1.36ZM27.3,6.22s-.11.07-.16.04l-1.55-.92s-.09,0-.12.03l-.46.85s-.11.07-.16.04l-1.59-.94c-.05-.03-.08-.09-.04-.15l.77-1.37s.07-.05.11-.03l1.58.93s.09,0,.12-.04l.48-.86s.07-.05.11-.03l1.62.94c.05.04.07.09.04.16l-.74,1.35ZM17.68,21.55s-.03-.03-.05-.05l-.24-.34c-.12-.16-.2-.27-.26-.32-.05-.07-.11-.12-.16-.15-.04-.04-.09-.05-.16-.05h-.16v.92h-.43v-2.21h1.02c.26,0,.46.05.61.18.13.12.22.27.22.47,0,.11-.03.2-.08.3-.05.09-.13.17-.23.23-.11.07-.23.09-.38.11.09.05.18.13.28.24.08.11.2.26.35.46.05.09.12.16.19.23h-.51ZM19.18,21.55h-.43v-2.21h.43v2.21ZM20.62,21.6l-1.04-2.26h.46l.69,1.58.72-1.58h.43l-1.04,2.26h-.23ZM23.53,21.55l-.13-.34-.16-.42h-.89l-.16.42-.13.34h-.4l.13-.34.66-1.54.15-.34h.44l.15.34.66,1.54.15.34h-.46ZM30.52,19.99c-.04.05-.11.08-.16.04l-1.55-.9s-.08-.01-.11.01l-.47.85c-.03.05-.09.08-.15.04l-1.62-.96s-.07-.07-.04-.11l.78-1.39s.07-.07.12-.04l1.58.93s.08.01.11-.04l.48-.85s.07-.07.11-.04l1.64.97s.05.07.04.11l-.77,1.37ZM22.8,19.68h-.01l-.32.82h.65l-.23-.61-.08-.22ZM17.63,19.99c0-.11-.04-.19-.12-.23-.08-.05-.18-.08-.3-.08h-.57v.63h.57c.12,0,.22-.03.3-.08.08-.04.12-.13.12-.24ZM17.51,19.76c-.08-.05-.18-.08-.3-.08h-.57v.63h.57c.12,0,.22-.03.3-.08.08-.04.12-.13.12-.24s-.04-.19-.12-.23ZM17.51,19.76c-.08-.05-.18-.08-.3-.08h-.57v.63h.57c.12,0,.22-.03.3-.08.08-.04.12-.13.12-.24s-.04-.19-.12-.23Z"/></svg>