<svg width="84" height="26" viewBox="0 0 84 26" fill="none" xmlns="http://www.w3.org/2000/svg">
<g clip-path="url(#clip0_2403_685)">
<path d="M28.4666 20.6201V16.1735H30.2209C30.5567 16.1735 30.8433 16.2336 31.0807 16.3537C31.3195 16.4724 31.5012 16.641 31.6256 16.8596C31.7516 17.0767 31.8145 17.3322 31.8145 17.626C31.8145 17.9213 31.7508 18.1754 31.6235 18.3881C31.4961 18.5995 31.3115 18.7616 31.0698 18.8745C30.8295 18.9874 30.5386 19.0438 30.197 19.0438H29.0224V18.2883H30.045C30.2245 18.2883 30.3736 18.2637 30.4923 18.2144C30.611 18.1652 30.6993 18.0914 30.7572 17.993C30.8165 17.8945 30.8462 17.7722 30.8462 17.626C30.8462 17.4784 30.8165 17.3539 30.7572 17.2526C30.6993 17.1513 30.6102 17.0746 30.4901 17.0225C30.3714 16.9689 30.2216 16.9421 30.0407 16.9421H29.4067V20.6201H28.4666ZM30.8679 18.5966L31.973 20.6201H30.9352L29.8539 18.5966H30.8679ZM33.419 16.1735V20.6201H32.4789V16.1735H33.419ZM34.9959 16.1735L36.0706 19.5519H36.1119L37.1888 16.1735H38.2309L36.6981 20.6201H35.4866L33.9515 16.1735H34.9959ZM38.9415 20.6201H37.934L39.4691 16.1735H40.6806L42.2134 20.6201H41.206L40.0922 17.1896H40.0575L38.9415 20.6201ZM38.8785 18.8723H41.2581V19.6062H38.8785V18.8723ZM44.1637 20.6201V16.1735H45.918C46.2539 16.1735 46.5405 16.2336 46.7778 16.3537C47.0167 16.4724 47.1983 16.641 47.3228 16.8596C47.4487 17.0767 47.5117 17.3322 47.5117 17.626C47.5117 17.9213 47.448 18.1754 47.3206 18.3881C47.1933 18.5995 47.0087 18.7616 46.767 18.8745C46.5267 18.9874 46.2358 19.0438 45.8942 19.0438H44.7195V18.2883H45.7422C45.9217 18.2883 46.0708 18.2637 46.1894 18.2144C46.3081 18.1652 46.3964 18.0914 46.4543 17.993C46.5137 17.8945 46.5433 17.7722 46.5433 17.626C46.5433 17.4784 46.5137 17.3539 46.4543 17.2526C46.3964 17.1513 46.3074 17.0746 46.1873 17.0225C46.0686 16.9689 45.9188 16.9421 45.7378 16.9421H45.1038V20.6201H44.1637ZM46.5651 18.5966L47.6702 20.6201H46.6324L45.5511 18.5966H46.5651ZM48.1761 20.6201V16.1735H51.1723V16.9486H49.1162V18.0082H51.0182V18.7833H49.1162V19.845H51.181V20.6201H48.1761ZM52.6862 20.6201H51.6788L53.2138 16.1735H54.4253L55.9582 20.6201H54.9507L53.8369 17.1896H53.8022L52.6862 20.6201ZM52.6232 18.8723H55.0029V19.6062H52.6232V18.8723ZM56.4934 20.6201V16.1735H57.4335V19.845H59.3398V20.6201H56.4934ZM59.9624 20.6201V16.1735H62.9586V16.9486H60.9025V18.0082H62.8045V18.7833H60.9025V19.845H62.9673V20.6201H59.9624ZM66.1183 17.4523C66.1009 17.2772 66.0264 17.1411 65.8946 17.0442C65.7629 16.9472 65.5842 16.8987 65.3583 16.8987C65.2049 16.8987 65.0754 16.9204 64.9697 16.9638C64.864 17.0058 64.783 17.0644 64.7265 17.1397C64.6715 17.215 64.644 17.3004 64.644 17.3959C64.6411 17.4755 64.6578 17.545 64.694 17.6043C64.7316 17.6637 64.783 17.7151 64.8481 17.7585C64.9133 17.8005 64.9885 17.8374 65.0739 17.8692C65.1593 17.8996 65.2505 17.9257 65.3475 17.9474L65.747 18.0429C65.941 18.0863 66.119 18.1442 66.2811 18.2166C66.4432 18.289 66.5836 18.378 66.7023 18.4837C66.821 18.5893 66.9129 18.7138 66.9781 18.8571C67.0446 19.0004 67.0787 19.1647 67.0801 19.35C67.0787 19.6221 67.0092 19.858 66.8717 20.0578C66.7356 20.2561 66.5388 20.4102 66.2811 20.5202C66.0249 20.6288 65.7159 20.6831 65.354 20.6831C64.995 20.6831 64.6824 20.6281 64.4161 20.5181C64.1512 20.4081 63.9442 20.2452 63.7951 20.0296C63.6474 19.8124 63.57 19.5439 63.5628 19.224H64.4725C64.4826 19.3731 64.5253 19.4976 64.6006 19.5975C64.6773 19.6959 64.7794 19.7705 64.9067 19.8211C65.0356 19.8703 65.181 19.8949 65.3431 19.8949C65.5024 19.8949 65.6406 19.8718 65.7578 19.8255C65.8765 19.7791 65.9685 19.7147 66.0336 19.6322C66.0987 19.5497 66.1313 19.4549 66.1313 19.3478C66.1313 19.2479 66.1016 19.164 66.0423 19.0959C65.9844 19.0279 65.899 18.97 65.7861 18.9222C65.6746 18.8745 65.5378 18.8311 65.3757 18.792L64.8915 18.6704C64.5166 18.5792 64.2206 18.4366 64.0035 18.2427C63.7864 18.0487 63.6786 17.7874 63.68 17.4589C63.6786 17.1896 63.7502 16.9544 63.895 16.7532C64.0412 16.552 64.2416 16.395 64.4964 16.2821C64.7511 16.1692 65.0406 16.1127 65.3649 16.1127C65.6949 16.1127 65.9829 16.1692 66.229 16.2821C66.4765 16.395 66.669 16.552 66.8065 16.7532C66.944 16.9544 67.015 17.1875 67.0193 17.4523H66.1183ZM67.5431 16.9486V16.1735H71.1951V16.9486H69.8337V20.6201H68.9044V16.9486H67.5431ZM72.0196 20.6201H71.0121L72.5472 16.1735H73.7587L75.2915 20.6201H74.2841L73.1703 17.1896H73.1356L72.0196 20.6201ZM71.9566 18.8723H74.3362V19.6062H71.9566V18.8723ZM75.1141 16.9486V16.1735H78.766V16.9486H77.4047V20.6201H76.4754V16.9486H75.1141ZM79.3674 20.6201V16.1735H82.3637V16.9486H80.3075V18.0082H82.2095V18.7833H80.3075V19.845H82.3723V20.6201H79.3674Z" fill="#122818"/>
<path d="M28.7901 4.38997L28.0801 3.67997L28.7901 2.96997L29.3901 3.56997C29.4501 3.62997 29.4501 3.71997 29.3901 3.78997L28.7901 4.38997ZM31.3101 9.04997L31.0501 9.84997L30.9601 9.89997C30.4301 9.72997 29.0701 9.38997 28.6001 9.20997C28.3701 9.09997 28.2101 8.97997 28.1101 8.81997L28.3101 7.68997C28.4801 7.45997 28.7701 7.31997 29.2701 6.97997L31.3301 5.52997V5.16997L31.7501 4.37997L31.8601 4.40997V9.02997H33.0201L33.3101 9.17997V10.22L33.0201 10.37H32.3101C31.7201 10.37 31.3401 9.97997 31.3401 9.39997V9.03997L31.3101 9.04997ZM28.4801 7.73997C29.4701 8.16997 30.3001 8.32997 31.3101 8.58997V5.84997L31.2601 5.92997C31.1401 6.17997 30.8901 6.42997 30.6601 6.54997L28.4801 7.73997ZM30.2301 4.38997L29.5201 3.67997L30.2301 2.96997L30.8301 3.56997C30.8901 3.62997 30.8901 3.71997 30.8301 3.78997L30.2301 4.38997Z" fill="#122818"/>
<path d="M32.9702 10.3801L32.6602 10.2301V9.66008L32.9702 9.04008H35.6702L34.5902 6.66008L35.1202 5.58008H35.2302C35.5402 6.45008 35.8602 7.33008 35.8602 8.25008C35.8602 8.64008 35.8002 9.02008 35.6702 9.42008L35.3302 10.3801H32.9702Z" fill="#122818"/>
<path d="M32.1802 13.0899L31.4502 12.3799L32.1802 11.6699L32.7802 12.2699C32.8402 12.3299 32.8402 12.4199 32.7802 12.4899L32.1802 13.0899Z" fill="#122818"/>
<path d="M33.6202 13.0899L32.9102 12.3799L33.6202 11.6699L34.2202 12.2699C34.2802 12.3299 34.2802 12.4199 34.2202 12.4899L33.6202 13.0899Z" fill="#122818"/>
<path d="M37.5303 12.7901L34.8203 12.5001V12.3801C36.9103 12.0701 38.3103 10.5701 38.7103 9.20007L37.2703 6.85007L38.0303 5.82007H38.1403C38.5603 7.04007 38.8203 8.11007 38.8203 9.13007C38.8203 10.6101 38.2803 11.9101 37.5203 12.8101L37.5303 12.7901Z" fill="#122818"/>
<path d="M40.23 10.38V3.83005L40.66 2.55005H40.77V9.04005H41.93C42.12 9.04005 42.24 9.16005 42.24 9.35005V10.08C42.24 10.27 42.12 10.39 41.93 10.39H40.23V10.38Z" fill="#122818"/>
<path d="M41.6098 10.23V9.18997L41.9198 9.03997H44.4698C44.0198 8.46997 43.6698 7.61997 43.9898 6.71997C44.1798 6.18997 44.7798 5.09997 45.9798 5.09997C47.6498 5.09997 48.0198 7.16997 47.4198 8.38997C47.2998 8.61997 47.1398 8.83997 46.9398 9.03997H48.1898L48.4798 9.18997V10.23L48.1698 10.38H46.3898L45.5398 9.91997C44.7798 10.23 43.8998 10.38 43.1098 10.38H41.8698L41.5898 10.23H41.6098ZM47.3498 8.30997C47.3498 7.65997 47.1498 6.29997 45.7698 6.29997C45.1498 6.29997 44.4598 6.58997 44.1198 6.82997C44.1498 7.78997 45.0798 8.50997 45.8198 8.94997C46.4098 8.85997 46.8698 8.65997 47.3498 8.31997V8.30997ZM45.1798 4.38997L44.4698 3.67997L45.1798 2.96997L45.7798 3.56997C45.8398 3.62997 45.8398 3.71997 45.7798 3.78997L45.1798 4.38997ZM46.6198 4.38997L45.9098 3.67997L46.6198 2.96997L47.2198 3.56997C47.2798 3.62997 47.2798 3.71997 47.2198 3.78997L46.6198 4.38997Z" fill="#122818"/>
<path d="M54.4299 7.15002C54.2399 8.09002 53.3899 8.71002 52.8699 9.04002H55.0599L55.3499 9.19002V10.32L55.0599 10.38H53.4099L52.4099 9.37002C51.9499 9.88002 51.3399 10.38 50.4899 10.38H48.2799L47.8799 10.29V9.19002L48.1899 9.04002H52.0499L49.6399 6.66002L49.6899 6.44002L50.2499 5.51002C50.7799 5.29002 51.5299 5.02002 52.3399 5.02002C53.9599 5.02002 54.6399 6.12002 54.4399 7.15002H54.4299ZM52.3399 9.04002C52.7399 8.78002 53.7499 8.10002 53.8399 7.34002C53.9299 6.47002 52.7999 6.21002 51.9499 6.21002C51.3599 6.21002 50.3099 6.35002 49.7999 6.53002L52.2999 9.03002H52.3299L52.3399 9.04002Z" fill="#122818"/>
<path d="M55.0502 10.3799L54.7402 10.2299V9.65994L55.0502 9.03994H57.4002V4.47994C56.9402 4.04994 56.9202 3.45994 57.3802 2.94994L57.8302 2.43994H57.9402V3.22994L58.8102 3.78994L57.9402 4.85994V7.55994L57.4102 10.3899H55.0502V10.3799Z" fill="#122818"/>
<path d="M59.9 10.85H59.79V3.83005L60.22 2.55005H60.33V8.81005L59.9 10.85Z" fill="#122818"/>
<path d="M64.8501 10.38V3.83005L65.2801 2.55005H65.3901V9.04005H66.5501C66.7401 9.04005 66.8601 9.16005 66.8601 9.35005V10.08C66.8601 10.27 66.7401 10.39 66.5501 10.39H64.8501V10.38Z" fill="#122818"/>
<path d="M66.23 10.2301V9.19006L66.54 9.04006H69.09C68.64 8.47006 68.29 7.62006 68.61 6.72006C68.8 6.19006 69.4 5.10006 70.6 5.10006C72.27 5.10006 72.64 7.17006 72.04 8.39006C71.92 8.62006 71.76 8.84006 71.56 9.04006H72.81L73.1 9.19006V10.2301L72.79 10.3801H71.01L70.16 9.92006C69.4 10.2301 68.52 10.3801 67.73 10.3801H66.49L66.21 10.2301H66.23ZM71.96 8.31006C71.96 7.66006 71.76 6.30006 70.38 6.30006C69.76 6.30006 69.07 6.59006 68.73 6.83006C68.76 7.79006 69.69 8.51006 70.43 8.95006C71.02 8.86006 71.48 8.66006 71.96 8.32006V8.31006ZM69.83 4.40006L69.12 3.69006L69.83 2.98006L70.43 3.58006C70.49 3.64006 70.49 3.73006 70.43 3.80006L69.83 4.40006ZM70.57 3.23006L69.86 2.52006L70.57 1.81006L71.17 2.41006C71.23 2.47006 71.23 2.56006 71.17 2.63006L70.57 3.23006ZM71.27 4.40006L70.56 3.69006L71.27 2.98006L71.87 3.58006C71.93 3.64006 71.93 3.73006 71.87 3.80006L71.27 4.40006Z" fill="#122818"/>
<path d="M72.77 10.3801L72.46 10.2301V9.66008L72.77 9.04008H75.47L74.39 6.66008L74.92 5.58008H75.03C75.34 6.45008 75.66 7.33008 75.66 8.25008C75.66 8.64008 75.6 9.02008 75.47 9.42008L75.13 10.3801H72.77Z" fill="#122818"/>
<path d="M71.6299 13.0899L70.8999 12.3799L71.6299 11.6699L72.2299 12.2699C72.2899 12.3299 72.2899 12.4199 72.2299 12.4899L71.6299 13.0899Z" fill="#122818"/>
<path d="M73.0699 13.0899L72.3599 12.3799L73.0699 11.6699L73.6699 12.2699C73.7299 12.3299 73.7299 12.4199 73.6699 12.4899L73.0699 13.0899Z" fill="#122818"/>
<path d="M77.3301 12.7901L74.6201 12.5001V12.3801C76.7101 12.0701 78.1101 10.5701 78.5101 9.20007L77.0701 6.85007L77.8301 5.82007H77.9401C78.3601 7.04007 78.6201 8.11007 78.6201 9.13007C78.6201 10.6101 78.0801 11.9101 77.3201 12.8101L77.3301 12.7901Z" fill="#122818"/>
<path d="M11.8597 13.23C13.0297 12.55 13.6097 12.12 13.6097 11.92C13.6097 11.52 13.4597 11.03 13.1697 10.47C12.8597 9.84002 12.5597 9.52002 12.2697 9.52002C11.9797 9.52002 11.5997 9.77002 11.1297 10.28C10.6597 10.79 10.4297 11.19 10.4297 11.48C10.4297 12.04 10.8797 12.62 11.7697 13.23C11.7997 13.25 11.8297 13.25 11.8597 13.23Z" fill="#122818"/>
<path d="M4.38 19.76C4.3 19.71 4.2 19.68 4.08 19.68H3.51V20.31H4.08C4.2 20.31 4.3 20.28 4.38 20.23C4.46 20.19 4.5 20.1 4.5 19.99C4.5 19.88 4.46 19.8 4.38 19.76ZM4.38 19.76C4.3 19.71 4.2 19.68 4.08 19.68H3.51V20.31H4.08C4.2 20.31 4.3 20.28 4.38 20.23C4.46 20.19 4.5 20.1 4.5 19.99C4.5 19.88 4.46 19.8 4.38 19.76ZM4.38 19.76C4.3 19.71 4.2 19.68 4.08 19.68H3.51V20.31H4.08C4.2 20.31 4.3 20.28 4.38 20.23C4.46 20.19 4.5 20.1 4.5 19.99C4.5 19.88 4.46 19.8 4.38 19.76ZM4.38 19.76C4.3 19.71 4.2 19.68 4.08 19.68H3.51V20.31H4.08C4.2 20.31 4.3 20.28 4.38 20.23C4.46 20.19 4.5 20.1 4.5 19.99C4.5 19.88 4.46 19.8 4.38 19.76ZM25.01 -1.95317e-05H2.42C2.42 -1.95317e-05 2.34 0.0399805 2.34 0.0899805C2.38 0.44998 2.43 0.819981 2.47 1.20998C3.06 6.39998 3.39 9.07998 3.43 9.25998C4 12.87 5.5 14.67 7.97 14.67H7.98C8.68 14.67 9.27 14.56 9.76 14.35C9.8 14.32 9.81 14.28 9.8 14.24C9.56 13.66 9.44 13.01 9.44 12.31C9.44 11.15 9.9 9.97998 10.81 8.76998C11.66 7.66998 12.39 7.10998 13.01 7.10998C13.37 7.10998 13.74 7.50998 14.09 8.33998C14.4 9.04998 14.55 9.60998 14.55 10.05C14.55 11.46 14.19 12.72 13.43 13.83C13.4 13.87 13.42 13.94 13.47 13.96C14.04 14.09 14.68 14.16 15.41 14.16C15.94 14.16 16.58 13.97 17.3 13.59C17.96 13.25 18.3 13 18.3 12.84C18.3 12.49 18.08 12 17.65 11.39C17.31 10.91 17.11 10.62 17.03 10.54C17.02 10.51 17 10.5 17 10.47C17.01 10.31 17.07 9.92998 17.19 9.37998C17.31 8.75998 17.39 8.43998 17.46 8.43998C17.64 8.43998 17.89 8.77998 18.25 9.43998C18.69 10.26 18.91 11.14 18.91 12.04C18.91 13.25 18.65 14.24 18.16 14.95C17.42 15.96 16.31 16.47 14.86 16.47C13.28 16.43 12.1 16.19 11.29 15.7C11.25 15.69 11.22 15.69 11.2 15.71C9.97 16.55 8.72 16.96 7.44 16.96H7.41C4.34 16.96 2.56 14.51 2.06 9.58998C1.71 5.92998 1.33 2.75998 0.939999 0.0699805C0.939999 0.0199805 0.909999 -0.0200195 0.869999 -0.0200195H0.0900002C0.0400002 -0.0200195 0 0.0299805 0 0.0699805V24.99C0 24.99 0.0400002 25.06 0.0900002 25.06H9.49C10.41 24.68 11.24 24.33 11.97 24C14.64 22.79 17.18 21.41 19.61 19.89C21.93 18.48 23.07 17.56 23.07 17.2C23.07 16.63 22.61 15.79 21.55 14.05C21.55 14.05 20.5 12.33 20.19 10.9C20.19 10.83 20.18 10.79 20.18 10.78C20.18 10.62 20.25 10.2 20.37 9.52998C20.49 8.79998 20.61 8.42998 20.71 8.42998C20.9 8.42998 21.07 8.65998 21.49 9.24998C22.8 11.07 22.88 11.27 22.81 11.34C22.76 11.39 22.58 11.38 22 11.02C22.07 11.26 22.4 12 23.05 13.23C23.66 14.32 23.95 15.22 23.95 15.94C23.95 17.5 23.42 18.9 22.36 20.14C21.83 20.76 20.15 21.9 17.32 23.57C16.46 24.08 15.66 24.54 14.92 24.93C14.84 24.97 14.88 25.08 14.96 25.08H25.01C25.01 25.08 25.08 25.05 25.08 25.01V0.0899805C25.08 0.0899805 25.05 -1.95317e-05 25.01 -1.95317e-05ZM11.54 1.79998C11.58 1.72998 11.65 1.71998 11.7 1.74998L13.29 2.68998C13.34 2.71998 13.37 2.77998 13.33 2.83998L12.59 4.16998C12.56 4.23998 12.5 4.24998 12.44 4.21998L10.81 3.25998C10.81 3.25998 10.77 3.18998 10.78 3.14998L11.53 1.78998L11.54 1.79998ZM14.17 6.21998C14.17 6.21998 14.06 6.28998 14.01 6.25998L12.46 5.33998C12.46 5.33998 12.37 5.33998 12.34 5.36998L11.88 6.21998C11.88 6.21998 11.77 6.28998 11.72 6.25998L10.13 5.31998C10.08 5.28998 10.05 5.22998 10.09 5.16998L10.86 3.79998C10.86 3.79998 10.93 3.74998 10.97 3.76998L12.55 4.69998C12.55 4.69998 12.64 4.69998 12.67 4.65998L13.15 3.79998C13.15 3.79998 13.22 3.74998 13.26 3.76998L14.88 4.70998C14.93 4.74998 14.95 4.79998 14.92 4.86998L14.18 6.21998H14.17ZM4.55 21.55C4.55 21.55 4.52 21.52 4.5 21.5L4.26 21.16C4.14 21 4.06 20.89 4 20.84C3.95 20.77 3.89 20.72 3.84 20.69C3.8 20.65 3.75 20.64 3.68 20.64H3.52V21.56H3.09V19.35H4.11C4.37 19.35 4.57 19.4 4.72 19.53C4.85 19.65 4.94 19.8 4.94 20C4.94 20.11 4.91 20.2 4.86 20.3C4.81 20.39 4.73 20.47 4.63 20.53C4.52 20.6 4.4 20.62 4.25 20.64C4.34 20.69 4.43 20.77 4.53 20.88C4.61 20.99 4.73 21.14 4.88 21.34C4.93 21.43 5 21.5 5.07 21.57H4.56L4.55 21.55ZM6.05 21.55H5.62V19.34H6.05V21.55ZM7.49 21.6L6.45 19.34H6.91L7.6 20.92L8.32 19.34H8.75L7.71 21.6H7.48H7.49ZM10.4 21.55L10.27 21.21L10.11 20.79H9.22L9.06 21.21L8.93 21.55H8.53L8.66 21.21L9.32 19.67L9.47 19.33H9.91L10.06 19.67L10.72 21.21L10.87 21.55H10.41H10.4ZM17.39 19.99C17.35 20.04 17.28 20.07 17.23 20.03L15.68 19.13C15.68 19.13 15.6 19.12 15.57 19.14L15.1 19.99C15.07 20.04 15.01 20.07 14.95 20.03L13.33 19.07C13.33 19.07 13.26 19 13.29 18.96L14.07 17.57C14.07 17.57 14.14 17.5 14.19 17.53L15.77 18.46C15.77 18.46 15.85 18.47 15.88 18.42L16.36 17.57C16.36 17.57 16.43 17.5 16.47 17.53L18.11 18.5C18.11 18.5 18.16 18.57 18.15 18.61L17.38 19.98L17.39 19.99ZM9.67 19.68H9.66L9.34 20.5H9.99L9.76 19.89L9.68 19.67L9.67 19.68ZM4.5 19.99C4.5 19.88 4.46 19.8 4.38 19.76C4.3 19.71 4.2 19.68 4.08 19.68H3.51V20.31H4.08C4.2 20.31 4.3 20.28 4.38 20.23C4.46 20.19 4.5 20.1 4.5 19.99ZM4.38 19.76C4.3 19.71 4.2 19.68 4.08 19.68H3.51V20.31H4.08C4.2 20.31 4.3 20.28 4.38 20.23C4.46 20.19 4.5 20.1 4.5 19.99C4.5 19.88 4.46 19.8 4.38 19.76ZM4.38 19.76C4.3 19.71 4.2 19.68 4.08 19.68H3.51V20.31H4.08C4.2 20.31 4.3 20.28 4.38 20.23C4.46 20.19 4.5 20.1 4.5 19.99C4.5 19.88 4.46 19.8 4.38 19.76Z" fill="#122818"/>
</g>
<defs>
<clipPath id="clip0_2403_685">
<rect width="83.3" height="25.08" fill="white"/>
</clipPath>
</defs>
</svg>
